<svg width="100" height="100" viewBox="0 0 100 100" fill="none" xmlns="http://www.w3.org/2000/svg">
<path fill-rule="evenodd" clip-rule="evenodd" d="M82.5188 33C78.5836 32.994 74.7625 34.3227 71.6789 36.7701C68.5955 34.3225 64.7743 32.9935 60.839 33C56.9041 32.994 53.0832 34.3229 49.9997 36.7701C46.9165 34.3224 43.0955 32.9933 39.1604 33C35.2254 32.994 31.4045 34.3229 28.3211 36.7701C25.2377 34.3228 21.4167 32.9938 17.4818 33C7.82537 33 0 40.833 0 50.5C0 60.1659 7.8248 68 17.4818 68C21.4167 68.006 25.2376 66.677 28.3211 64.2299C31.4045 66.6772 35.2254 68.0061 39.1604 68C43.0954 68.0068 46.9165 66.6775 49.9997 64.2299C53.0832 66.6771 56.9041 68.0061 60.839 68C64.7742 68.0068 68.5955 66.6774 71.6789 64.2299C74.7624 66.6774 78.5836 68.0065 82.5188 68C92.1752 68 100 60.1664 100 50.5C100 40.8336 92.1752 33 82.5188 33ZM25.4607 61.3711C23.2331 62.9979 20.4502 63.9907 17.4818 63.9907C10.0325 63.9907 4.00458 57.957 4.00458 50.5C4.00458 43.043 10.0325 37.0088 17.4818 37.0088C20.4502 37.0088 23.2314 38.0021 25.4607 39.6294C23.0045 42.7184 21.671 46.5519 21.6792 50.5C21.6807 54.4466 23.0135 58.277 25.4607 61.3711ZM28.3216 58.5158C26.6037 56.1976 25.6787 53.3864 25.6844 50.5C25.6768 47.6133 26.6022 44.8016 28.3216 42.4842C30.0408 44.8018 30.9658 47.6134 30.9589 50.5C30.9642 53.3864 30.0394 56.1975 28.3216 58.5158ZM47.1399 61.3711C44.8255 63.0768 42.0253 63.9936 39.1513 63.9867C36.2833 63.9927 33.4893 63.0756 31.1814 61.3711C33.6289 58.2773 34.9614 54.447 34.9629 50.5006C34.9712 46.5525 33.6376 42.719 31.1814 39.63C33.4891 37.9251 36.2832 37.0079 39.1513 37.0139C42.1413 37.0139 44.9038 37.9822 47.1399 39.63C44.6837 42.719 43.3502 46.5525 43.3584 50.5006C43.3599 54.447 44.6925 58.2773 47.1399 61.3711ZM49.9997 58.5158C48.2817 56.1976 47.3568 53.3864 47.3624 50.5C47.3556 47.6134 48.2805 44.8017 49.9997 42.4842C51.7192 44.8016 52.6445 47.6133 52.6376 50.5C52.6429 53.3865 51.7179 56.1977 49.9997 58.5158ZM68.8186 61.3711C66.5825 63.0195 63.82 63.9867 60.8305 63.9867C57.841 63.9867 55.0962 63.0178 52.86 61.3711C55.3078 58.2775 56.6403 54.447 56.6416 50.5006C56.6498 46.5525 55.3162 42.719 52.86 39.63C55.0962 37.9828 57.841 37.0139 60.8305 37.0139C63.82 37.0139 66.5825 37.9822 68.8186 39.63C66.3627 42.7192 65.0292 46.5525 65.0371 50.5006C65.0393 54.4469 66.3715 58.2771 68.8186 61.3711ZM71.6795 58.5158C69.9615 56.1976 69.0366 53.3864 69.0422 50.5C69.0346 47.6133 69.9598 44.8015 71.6795 42.4842C73.3986 44.8018 74.3236 47.6134 74.3168 50.5C74.3221 53.3864 73.3971 56.1974 71.6795 58.5158ZM82.5188 63.9907C79.5492 63.9907 76.7669 62.9979 74.5398 61.3711C76.9871 58.2772 78.3195 54.4469 78.3214 50.5006C78.3293 46.5525 76.9957 42.7192 74.5398 39.63C76.7691 38.0033 79.5498 37.0094 82.5188 37.0094C89.9669 37.0094 95.996 43.0435 95.996 50.5006C95.996 57.9564 89.9669 63.9907 82.5188 63.9907Z" fill="black"/>
</svg>
