<svg width="100" height="100" viewBox="0 0 100 100" fill="none" xmlns="http://www.w3.org/2000/svg">
<g clip-path="url(#clip0_104_2239)">
<mask id="mask0_104_2239" style="mask-type:luminance" maskUnits="userSpaceOnUse" x="0" y="0" width="100" height="100">
<path d="M100 0H0V100H100V0Z" fill="white"/>
</mask>
<g mask="url(#mask0_104_2239)">
<path d="M0 49.9997C0 77.4997 22.2917 99.7913 49.7917 99.7913C77.2917 99.7913 99.5833 77.4997 99.5833 49.9997C99.5833 22.4997 77.2917 0.208008 49.7917 0.208008C22.2917 0.208008 0 22.4997 0 49.9997ZM96.3333 49.9997C96.3333 75.708 75.5 96.5413 49.7917 96.5413C24.0833 96.5413 3.25 75.708 3.25 49.9997C3.25 24.2913 24.0833 3.45801 49.7917 3.45801C75.5 3.45801 96.3333 24.2913 96.3333 49.9997Z" fill="black"/>
<path d="M73.9187 28.8782C74.5853 29.5866 75.5853 30.7949 76.127 31.5032L86.2103 25.0866C85.7103 24.4199 84.9187 23.4199 84.2937 22.7116L77.9187 26.9199L77.502 27.2949L77.8353 26.8366L80.6687 21.2116L78.6687 19.2116L73.0437 22.0449L72.5853 22.3782L72.9603 21.9616L77.1687 15.5866C76.4187 14.9616 75.7103 14.3782 74.7937 13.6699L68.377 23.7532C69.1687 24.3782 70.252 25.2949 70.9187 25.9199L76.9603 22.7949L77.3353 22.5032L77.0437 22.8782L73.9187 28.8782Z" fill="black"/>
<path d="M51.0439 16.1276L53.7939 9.96094L53.9606 9.41928L53.9189 10.0026L54.2106 18.2526C55.1689 18.3359 56.1689 18.4609 57.1689 18.6276L56.7106 6.41928C55.3356 6.25261 53.9606 6.16928 52.5856 6.08594L49.8773 12.8359L49.7939 13.3359L49.7106 12.8359L47.0023 6.08594C45.6273 6.12761 44.2523 6.25261 42.8773 6.41928L42.4189 18.6276C43.4189 18.4609 44.4189 18.3359 45.3773 18.2526L45.6689 10.0026L45.6273 9.41928L45.7939 9.96094L48.5439 16.1276H51.0439Z" fill="black"/>
<path d="M28.7524 25.8369C30.3357 24.1702 31.2524 22.2119 29.6691 20.3785C28.7941 19.3785 27.3357 19.1702 26.1274 19.6702L26.0024 19.7119L26.0441 19.5869C26.2107 19.1285 26.3357 17.5869 25.0441 16.5452C24.4191 16.0452 23.6274 15.8369 22.8357 15.9202C21.3357 16.0869 20.2107 17.0869 17.0441 20.5869C16.0857 21.6285 14.7107 23.2952 13.8774 24.3785L22.5024 32.5452C25.3774 29.3785 26.5024 28.2119 28.7524 25.8369ZM17.5441 23.8369C19.2941 21.7119 21.1274 19.7952 21.9607 19.0452C22.2107 18.7952 22.5024 18.5452 22.8774 18.4619C23.4607 18.2952 24.0441 18.7119 24.1691 19.2952C24.2941 19.8785 23.9191 20.4202 23.5441 20.8785C22.5857 21.9202 19.2107 25.4619 19.2107 25.4619L17.5441 23.8369ZM20.9191 27.0452C20.9191 27.0452 24.2107 23.5869 25.2524 22.4619C25.6691 22.0035 25.9607 21.7535 26.2524 21.6285C26.6274 21.4619 27.0441 21.4202 27.4191 21.6702C27.7941 21.9202 27.9607 22.3369 27.8774 22.7535C27.7524 23.2535 27.3774 23.7119 27.0441 24.0869C26.5857 24.5869 22.7107 28.7119 22.7107 28.7119L20.9191 27.0452Z" fill="black"/>
<path d="M79.2915 50H49.7915V20.5C66.1249 20.5 79.2915 33.6667 79.2915 50Z" fill="black"/>
<path d="M49.7915 50V79.5C33.4582 79.5 20.2915 66.2917 20.2915 50H49.7915Z" fill="black"/>
<path d="M50.2085 79.583C66.4318 79.583 79.5835 66.4313 79.5835 50.208C79.5835 33.9846 66.4318 20.833 50.2085 20.833C33.9851 20.833 20.8335 33.9846 20.8335 50.208C20.8335 66.4313 33.9851 79.583 50.2085 79.583Z" stroke="black" stroke-width="3"/>
</g>
</g>
<defs>
<clipPath id="clip0_104_2239">
<rect width="100" height="100" fill="white"/>
</clipPath>
</defs>
</svg>
