<svg width="48" height="48" viewBox="0 0 48 48" fill="none" xmlns="http://www.w3.org/2000/svg">
<path d="M42.525 9.88125C42.525 9.80625 42.45 9.80625 42.45 9.73125C41.925 8.98125 41.175 8.30625 40.275 7.93125L24.075 0.50625C22.575 -0.16875 20.925 -0.16875 19.425 0.50625L3.3 7.93125C2.4 8.30625 1.725 8.98125 1.125 9.65625C1.05 9.73125 0.975 9.80625 0.9 9.88125C0.9 9.95625 0.825 9.95625 0.825 10.0312C0.3 10.9312 0 11.9062 0 12.9562V31.7063C0 33.8063 1.2 35.7562 3.075 36.6562L19.2 44.7563C19.95 45.1313 20.85 45.3563 21.675 45.3563C22.5 45.3563 23.4 45.1313 24.15 44.7563L40.275 36.6562C42.15 35.6813 43.35 33.8063 43.35 31.7063V12.9562C43.5 11.8312 43.125 10.7812 42.525 9.88125ZM20.85 3.58125C21.15 3.43125 21.45 3.35625 21.75 3.35625C22.05 3.35625 22.35 3.43125 22.65 3.58125L37.8 10.5562L31.8 13.4813L16.275 5.68125L20.85 3.58125ZM21.75 18.4312L5.7 10.5562L12.375 7.48125L28.05 15.3563L21.75 18.4312ZM4.575 33.6562C3.825 33.2812 3.375 32.5312 3.375 31.7063V13.1812L20.025 21.3563V41.4563L4.575 33.6562ZM38.925 33.6562L23.4 41.4563V21.3563L30 18.1312V24.2063C30 25.1063 30.75 25.8563 31.65 25.8563C32.55 25.8563 33.3 25.1063 33.3 24.2063V16.4813L39.975 13.1812V31.7063C40.125 32.5312 39.6 33.2812 38.925 33.6562Z" fill="white"/>
</svg>
