<svg width="47" height="44" viewBox="0 0 47 44" fill="none" xmlns="http://www.w3.org/2000/svg">
<path d="M25.7044 3.49745H28.891C29.8236 3.49745 30.6008 2.72024 30.6008 1.78759C30.6008 0.854933 29.8236 0 28.891 0H23.2173C22.6733 0 22.1292 0.310885 21.8183 0.777212C21.5075 1.24354 21.4297 1.86531 21.5852 2.40936L24.3831 10.2592H3.32071C2.23261 10.2592 1.22224 10.8032 0.600471 11.6582C-0.0212985 12.5131 -0.176741 13.6789 0.211865 14.6893L4.64197 26.8138C5.1083 28.0573 6.35184 28.99 7.75082 28.99H30.2122C31.3003 28.99 32.3107 28.4459 32.8547 27.591C33.4765 26.7361 33.632 25.5703 33.2434 24.6376L25.7044 3.49745ZM7.90626 25.3371L3.6316 13.6789H25.7044L29.9013 25.3371H7.90626Z" fill="white"/>
<path d="M31.1451 33.8087C30.2124 32.876 29.0466 32.4097 27.8031 32.4874H10.6267C10.3935 32.4874 10.2381 32.4874 10.0049 32.4874C7.36241 32.7983 5.49711 35.5963 5.88571 38.6274C6.27432 41.5031 8.37279 43.6015 10.8599 43.6015C11.0153 43.6015 11.1708 43.6015 11.4039 43.6015C12.7252 43.4461 13.9687 42.6689 14.7459 41.4254C15.4454 40.3373 15.7563 38.9383 15.6009 37.4616C15.5231 36.9175 15.4454 36.4512 15.2122 35.9849H23.5284C23.2952 36.7621 23.1398 37.6947 23.2952 38.6274C23.6839 41.5031 25.7823 43.6015 28.2694 43.6015C28.4248 43.6015 28.5803 43.6015 28.8135 43.6015C30.1347 43.4461 31.3782 42.6689 32.1555 41.4254C32.8549 40.2595 33.1658 38.9383 33.0104 37.4616C32.855 35.9849 32.1555 34.7413 31.1451 33.8087ZM12.0257 37.8502C12.1034 38.472 11.948 39.0937 11.7148 39.4823C11.5594 39.6378 11.3262 40.0264 10.9376 40.0264C10.3158 40.1041 9.53861 39.3269 9.38316 38.1611C9.22772 36.9175 9.84949 35.9849 10.4713 35.9072H10.549C11.1708 35.9849 11.8702 36.6844 12.0257 37.8502ZM29.1243 39.4823C28.9689 39.6378 28.7357 40.0264 28.3471 40.0264C27.7254 40.1041 26.9481 39.3269 26.7927 38.1611C26.6373 36.9175 27.259 35.9849 27.8808 35.9072H27.9585C28.2694 35.9072 28.5803 36.1403 28.7357 36.2958C29.1243 36.6844 29.3575 37.2284 29.4352 37.8502C29.5129 38.472 29.4352 39.016 29.1243 39.4823Z" fill="white"/>
<path d="M33.9428 16.1661H41.1708C42.1035 16.1661 42.8807 15.3889 42.8807 14.4562C42.8807 13.5236 42.1035 12.7463 41.1708 12.7463H33.9428C33.0101 12.7463 32.2329 13.5236 32.2329 14.4562C32.2329 15.3889 33.0101 16.1661 33.9428 16.1661Z" fill="white"/>
<path d="M45.2902 18.8085H34.7201C33.7875 18.8085 33.0103 19.5857 33.0103 20.5184C33.0103 21.4511 33.7875 22.2283 34.7201 22.2283H45.2902C46.2228 22.2283 47.0001 21.4511 47.0001 20.5184C47.0001 19.5857 46.2228 18.8085 45.2902 18.8085Z" fill="white"/>
<path d="M43.2694 24.9484H37.0517C36.119 24.9484 35.3418 25.7256 35.3418 26.6583C35.3418 27.5909 36.119 28.3682 37.0517 28.3682H43.2694C44.202 28.3682 44.9792 27.5909 44.9792 26.6583C44.9792 25.7256 44.202 24.9484 43.2694 24.9484Z" fill="white"/>
</svg>
