<svg width="34" height="34" viewBox="0 0 34 34" fill="none" xmlns="http://www.w3.org/2000/svg">
<path d="M30.9189 5.89688C30.2814 5.1 29.3783 4.675 28.3689 4.675H9.8814L9.77515 2.65625C9.72202 1.7 8.92515 0.903126 7.9689 0.903126H3.55952C2.92202 0.903126 2.33765 1.43438 2.33765 2.125C2.33765 2.81563 2.8689 3.34688 3.55952 3.34688H7.43765L8.55327 21.9406C8.6064 23.2687 9.72202 24.2781 10.997 24.2781H28.422C29.0595 24.2781 29.6439 23.7469 29.6439 23.0563C29.6439 22.3656 29.1126 21.8344 28.422 21.8344H10.997C10.9439 21.8344 10.8908 21.7813 10.8908 21.7281L10.6783 18.4875H26.722C28.2626 18.4875 29.5908 17.425 29.9095 15.9375L31.5033 8.60625C31.7689 7.70313 31.5033 6.69375 30.9189 5.89688ZM29.2189 8.12813L27.6251 15.4594C27.5189 15.8313 27.2001 16.15 26.7751 16.15H10.572L10.0408 7.06563H28.3689C28.7408 7.06563 28.9533 7.27813 29.0595 7.38438C29.1126 7.54375 29.272 7.80938 29.2189 8.12813Z" fill="#0BB489"/>
<path d="M24.7033 25.5C22.6314 25.5 20.9314 27.2 20.9314 29.2719C20.9314 31.3437 22.6314 33.0438 24.7033 33.0438C26.7751 33.0438 28.4751 31.3437 28.4751 29.2719C28.4751 27.2 26.8283 25.5 24.7033 25.5ZM24.7033 30.7062C23.9595 30.7062 23.322 30.0688 23.322 29.325C23.322 28.5813 23.9595 27.9437 24.7033 27.9437C25.447 27.9437 26.0845 28.5813 26.0845 29.325C26.0845 30.0688 25.5001 30.7062 24.7033 30.7062Z" fill="#0BB489"/>
<path d="M13.0158 25.5C10.9439 25.5 9.2439 27.2 9.2439 29.2719C9.2439 31.3437 10.9439 33.0438 13.0158 33.0438C15.0876 33.0438 16.7876 31.3437 16.7876 29.2719C16.7876 27.2 15.0876 25.5 13.0158 25.5ZM13.0158 30.7062C12.272 30.7062 11.6345 30.0688 11.6345 29.325C11.6345 28.5813 12.272 27.9437 13.0158 27.9437C13.7595 27.9437 14.397 28.5813 14.397 29.325C14.397 30.0688 13.7595 30.7062 13.0158 30.7062Z" fill="#0BB489"/>
</svg>
