<svg width="100" height="100" viewBox="0 0 100 100" fill="none" xmlns="http://www.w3.org/2000/svg">
<path d="M13.0827 76.6408H17.375V82.994H20.3737V68.7861H17.3769V74.472H13.0827V68.7861H10.0859V82.994H13.0827V76.6408Z" fill="black"/>
<path d="M100 70.9549H95.9273V82.994H92.9326V70.9549H88.8657V68.7861H100V70.9549Z" fill="black"/>
<path d="M73.0471 68.7861L73.0432 80.8271H78.6192V82.994H70.0464V68.7861H73.0471Z" fill="black"/>
<path d="M38.448 80.8194C38.2971 80.8194 38.1795 80.7631 38.1344 80.6273L34.977 68.7861H31.4824L35.1083 81.7486C35.2847 82.6041 35.8589 82.9999 36.6723 82.9999H39.4358C40.2472 82.9999 40.7745 82.5886 40.9783 81.768L44.518 68.788H41.8701L38.7596 80.6332C38.7165 80.7786 38.6068 80.8194 38.448 80.8194Z" fill="black"/>
<path d="M2.99479 79.7312C2.99479 80.6197 3.2633 80.8214 4.09235 80.8214V80.8234H8.93928V82.9941H2.23825C0.821214 82.9941 0 82.3559 0 80.7729L0.00195994 71.0035C0.00195994 69.5679 0.713418 68.7842 2.24609 68.7842H8.93928V70.9531H4.09627C3.19862 70.9531 2.99871 71.1839 2.99871 72.0375L2.99479 79.7312Z" fill="black"/>
<path d="M25.1696 79.733V76.6408H31.1239V74.472H25.1716V72.0393C25.1716 71.2168 25.3578 70.9549 26.2692 70.9549H31.1866V68.7861H24.417C22.8667 68.7861 22.1748 69.5504 22.1748 71.0053V80.7728C22.1748 82.2763 22.9137 82.994 24.4151 82.994H31.8099V80.8233H26.2672C25.4362 80.8233 25.1696 80.637 25.1696 79.733Z" fill="black"/>
<path d="M48.7772 75.8474C48.7772 75.2344 49.1319 74.858 49.7689 74.858H51.4074C52.2737 74.858 52.5089 74.6116 52.5089 73.7717L52.5011 72.0393C52.5011 71.2168 52.3345 70.9549 51.4074 70.9549H47.905V82.9921H44.9102V68.7861H53.2596C54.7942 68.7861 55.5017 69.5213 55.5017 71.0053L55.5037 74.7727C55.5037 76.3653 54.6511 76.9939 53.2635 76.9939L52.5912 76.9977L56.5523 82.994H52.8441L49.0614 76.602C49.0438 76.5707 49.0255 76.5394 49.0071 76.5079C48.8945 76.315 48.7772 76.1142 48.7772 75.8474Z" fill="black"/>
<path fill-rule="evenodd" clip-rule="evenodd" d="M57.1479 80.7728C57.1479 82.3868 58.0181 82.994 59.3881 82.994H65.9952C67.4298 82.994 68.2372 82.3267 68.2372 80.7728L68.2333 71.0053C68.2333 69.5504 67.5416 68.7861 65.9952 68.7861H59.3941C57.8124 68.7861 57.1518 69.5872 57.1518 71.0053L57.1479 80.7728ZM65.2425 79.7311C65.2425 80.6506 64.9563 80.8213 64.1429 80.8213H61.2443C60.3799 80.8213 60.1466 80.5847 60.1466 79.7311V72.0374C60.1466 71.2944 60.2486 70.953 61.2443 70.953H64.1429C64.9269 70.953 65.2406 71.0868 65.2406 72.0374L65.2425 79.7311Z" fill="black"/>
<path d="M82.196 76.6408L82.1941 79.733C82.1941 80.637 82.4626 80.8233 83.2936 80.8233H88.8363V82.994H81.4375C79.9401 82.994 79.1973 82.2763 79.1973 80.7728L79.2012 71.0053C79.2012 69.5504 79.8931 68.7861 81.4434 68.7861H88.213V70.9549H83.2936C82.3802 70.9549 82.198 71.2168 82.198 72.0393V74.472H88.1483V76.6408H82.196Z" fill="black"/>
<path fill-rule="evenodd" clip-rule="evenodd" d="M67.3453 18.8196C67.3453 17.6285 66.6985 17 65.5225 17H33.3188C32.1154 17 31.496 17.6712 31.4941 18.8099L31.4921 22.942C31.4921 23.811 31.0766 24.1292 30.3044 24.1292L11.8692 24.135C10.458 24.135 9.63488 24.8004 9.20762 25.6753L0.233062 43.0395C0.117426 43.2607 0.0488281 43.5168 0.0488281 43.7786C0.0488281 44.4654 0.501574 45.3539 1.76181 45.3539L30.3044 45.35C31.1844 45.35 31.4941 45.7477 31.4941 46.5392L31.4921 50.6673C31.4921 51.9127 32.2212 52.4772 33.3188 52.4772H65.5225C66.6201 52.4772 67.3511 51.9496 67.3511 50.6789L67.3472 46.5488C67.3472 45.705 67.7078 45.3616 68.533 45.3616L86.4351 45.3558C87.6659 45.3558 88.5557 45.0338 89.1751 43.8989L98.0497 26.7345C98.0659 26.7034 98.0816 26.6735 98.0969 26.6444C98.2647 26.3255 98.375 26.1158 98.375 25.7122C98.375 24.5463 97.3598 24.1369 96.6659 24.1369L68.533 24.1408C67.8176 24.1408 67.3472 23.9294 67.3472 22.9517L67.3453 18.8196ZM61.7712 23.7102C61.7712 22.8663 61.3733 22.5132 60.5717 22.5132L38.2676 22.5171C37.4405 22.5171 37.0701 22.8547 37.0701 23.6985V28.4668C37.0701 29.365 36.6075 29.6638 35.8588 29.6638L14.2094 29.658C13.5626 29.658 13.2941 29.8655 13.1314 30.1565L8.85286 38.44C8.78035 38.5758 8.74115 38.7232 8.74115 38.8862C8.74115 39.439 9.18409 39.8348 9.82303 39.8348H35.8588C36.6585 39.8348 37.0622 40.1471 37.0622 41.0162L37.0642 45.7806C37.0642 46.704 37.5189 46.964 38.2676 46.964H60.5717C61.4262 46.964 61.779 46.5818 61.779 45.7923L61.781 41.024C61.781 40.2325 62.1024 39.8387 62.9805 39.8387H84.2144C84.5516 39.8387 85.0259 39.8193 85.2944 39.3382L89.5749 31.0528C89.648 30.9158 89.6863 30.7634 89.6866 30.6085C89.6866 30.1856 89.4181 29.6541 88.6028 29.6541H62.9824C62.1534 29.6541 61.7712 29.2933 61.7712 28.4746V23.7102Z" fill="black"/>
</svg>
