<svg width="100" height="100" viewBox="0 0 100 100" fill="none" xmlns="http://www.w3.org/2000/svg">
<path d="M27.2828 98.7136H29.4922V90.6317H35.1083V88.75H21.6655V90.6317H27.2828V98.7136Z" fill="black"/>
<path d="M19.1355 88.75H16.9248V98.7136H19.1355V88.75Z" fill="black"/>
<path d="M94.9191 88.7979H86.8325V98.7461H89.0432V90.6784H94.3982C96.4842 90.6784 97.7895 91.4502 97.7895 93.7939V98.7449H100V93.5162C99.999 90.8639 98.4797 88.7979 94.9191 88.7979Z" fill="black"/>
<path d="M78.9129 87.5635H82.1654C82.5347 87.5635 82.8557 87.2395 82.8557 86.8528C82.8557 86.4519 82.5335 86.1279 82.1654 86.1279H78.9129C78.5143 86.1279 78.1909 86.4519 78.1909 86.8528C78.1909 87.2395 78.5143 87.5635 78.9129 87.5635Z" fill="black"/>
<path d="M47.171 94.8092C50.2307 94.7371 51.2361 93.9168 51.2361 91.8213C51.2361 89.9231 49.8861 88.7979 47.6002 88.7979H37.6416V98.7461H39.8511V90.6784H47.6155C48.4904 90.6784 48.9513 91.0766 48.9513 91.8661C48.9513 92.5599 48.7326 93.2325 47.3086 93.1888H41.7243V93.7632L48.5374 98.7141H51.744L46.0798 94.808H47.171V94.8092Z" fill="black"/>
<path d="M63.3722 88.5846C62.6996 88.5574 62.0129 88.542 61.3297 88.542C60.1667 88.542 59.413 88.5846 59.406 88.5846H59.3683C57.7609 88.6366 56.391 89.1755 55.4079 90.1424C54.4649 91.0702 53.9463 92.3549 53.9463 93.7638V93.7779C53.9463 96.8001 56.1311 98.8815 59.3836 98.9571C60.0574 98.9867 60.7441 98.9997 61.4273 98.9997C62.5891 98.9997 63.344 98.9583 63.3511 98.9571H63.3875C64.995 98.9051 66.3649 98.3661 67.3491 97.3993C68.2921 96.4739 68.8107 95.1868 68.8107 93.7779V93.7638C68.8107 90.8019 66.6247 88.7205 63.3722 88.5846ZM66.4542 93.7448C66.4472 95.6631 65.2054 96.9077 63.2135 96.9916H63.1688L63.1265 96.9939C63.0053 97.0034 62.5373 97.0365 61.5273 97.0365C60.8523 97.0365 60.2044 97.0223 59.6035 96.9928L59.5682 96.9916C57.5539 96.9396 56.3028 95.695 56.3028 93.7437C56.3028 91.8136 57.5445 90.5631 59.5435 90.4792H59.5882L59.6294 90.478C59.6364 90.4768 60.4678 90.4355 61.6072 90.4355C62.2481 90.4355 62.5221 90.4485 63.0677 90.4745L63.1535 90.478C65.2207 90.5749 66.4542 91.7888 66.4542 93.7283V93.7448Z" fill="black"/>
<path d="M83.7457 96.8633H73.8941V94.6272H82.5333V92.8247H73.8941V90.6784H83.7457V88.7979H71.6846V98.7461H83.7457V96.8633Z" fill="black"/>
<path d="M73.2664 87.5635H76.5036C76.8881 87.5635 77.2103 87.2395 77.2103 86.8528C77.2103 86.4519 76.8881 86.1279 76.5036 86.1279H73.2664C72.8678 86.1279 72.5444 86.4519 72.5444 86.8528C72.5444 87.2395 72.8666 87.5635 73.2664 87.5635Z" fill="black"/>
<path d="M5.35147 88.8284H5.31737C3.74168 88.8781 2.39764 89.3887 1.43223 90.3058C0.507984 91.1864 0 92.4061 0 93.7429V93.757C0 96.6244 2.14247 98.5994 5.33031 98.6726C6.22751 98.7105 8.93323 98.714 10.0562 98.714C11.5073 98.714 12.8925 98.7081 13.3028 98.6998V96.7969C12.6855 96.804 7.98664 96.8111 7.4328 96.8111C6.77783 96.8111 6.12051 96.7981 5.52903 96.7709C3.5747 96.7237 2.30945 95.5406 2.30945 93.757C2.30945 91.9723 3.55707 90.7715 5.48788 90.697H5.53139L5.57254 90.6947C5.5796 90.6947 6.38978 90.6557 7.51041 90.6557C7.82319 90.6557 12.649 90.6616 13.304 90.6722V88.8024C12.8689 88.793 12.1904 88.7871 11.285 88.7871C8.80153 88.7871 5.38558 88.8273 5.35147 88.8284Z" fill="black"/>
<path d="M49.9999 1C33.6057 1 20.2676 17.6379 20.2676 38.0875C20.2676 58.537 33.6057 75.1761 49.9999 75.1761C66.3942 75.1761 79.7335 58.5382 79.7335 38.0875C79.7335 17.6367 66.3954 1 49.9999 1ZM25.7472 50.9243L25.719 50.838C24.7336 47.7756 24.4408 45.0927 24.4385 45.0655L24.4349 45.0277L24.4655 45.0052L49.9999 26.026L75.5661 45.0277L75.5626 45.0655C75.5591 45.0927 75.2675 47.7756 74.2821 50.838L74.2538 50.9243L74.1809 50.8699L74.1798 50.8734L49.9988 32.848L25.7484 50.9278L25.7472 50.9243ZM49.9999 71.6752C41.4842 71.6752 33.5116 66.3743 28.5776 57.4674L28.5188 57.3527L49.9988 41.3874L71.4823 57.3551L71.4258 57.4579L71.427 57.4591C66.4942 66.3708 58.5216 71.6752 49.9999 71.6752ZM49.9999 17.3436L23.7729 36.8961L23.7764 36.7613C24.041 28.0872 26.8878 19.9757 31.7901 13.9219C36.7112 7.84685 43.1774 4.50084 49.9999 4.50084C56.8225 4.50084 63.2887 7.84685 68.2098 13.9219C73.1132 19.9757 75.9589 28.0872 76.2235 36.7613L76.227 36.8961L76.1188 36.8157L49.9999 17.3436Z" fill="black"/>
</svg>
