<svg width="24" height="24" viewBox="0 0 24 24" fill="none" xmlns="http://www.w3.org/2000/svg">
<g clip-path="url(#clip0_106_3444)">
<path d="M17.475 11.8872H12.5625V6.33721C12.5625 5.88721 12.1875 5.51221 11.7375 5.51221C11.2875 5.51221 10.9125 5.88721 10.9125 6.33721V12.7497C10.9125 13.1997 11.2875 13.5747 11.7375 13.5747H17.475C17.925 13.5747 18.3 13.1997 18.3 12.7497C18.3 12.2997 17.9625 11.8872 17.475 11.8872Z" fill="#111928"/>
<path d="M12 0.524902C5.73749 0.524902 0.674988 5.6624 0.674988 11.9999C0.674988 18.3374 5.73749 23.4749 12 23.4749C18.2625 23.4749 23.325 18.3374 23.325 11.9999C23.325 5.6624 18.2625 0.524902 12 0.524902ZM12 21.7874C6.67499 21.7874 2.32499 17.3999 2.32499 11.9999C2.32499 6.5999 6.67499 2.2124 12 2.2124C17.325 2.2124 21.675 6.5999 21.675 11.9999C21.675 17.3999 17.325 21.7874 12 21.7874Z" fill="#111928"/>
</g>
<defs>
<clipPath id="clip0_106_3444">
<rect width="24" height="24" fill="white"/>
</clipPath>
</defs>
</svg>
