<svg width="100" height="100" viewBox="0 0 100 100" fill="none" xmlns="http://www.w3.org/2000/svg">
<mask id="mask0_104_2284" style="mask-type:luminance" maskUnits="userSpaceOnUse" x="0" y="23" width="100" height="54">
<path d="M100 23H0V77H100V23Z" fill="white"/>
</mask>
<g mask="url(#mask0_104_2284)">
<path fill-rule="evenodd" clip-rule="evenodd" d="M5.61914 23V31.3004H36.6879V35.4853V39.6705H5.61914V47.9709H39.9233C40.7102 47.9709 41.2289 47.7551 41.7652 47.2219L50.7969 38.5354L59.829 47.2219C60.3653 47.7551 60.884 47.9709 61.6709 47.9709H95.975V39.6705H64.906V35.4853V31.3004H95.975V23H61.6709C60.884 23 60.3653 23.2158 59.829 23.749L50.7969 32.4355L41.7652 23.749C41.2289 23.2158 40.7102 23 39.9233 23H5.61914Z" fill="black"/>
<path fill-rule="evenodd" clip-rule="evenodd" d="M0 66.6113V70.0415L12.7684 70.1223C13.0732 70.1223 13.2419 70.1915 13.4358 70.3832L14.7937 71.5434C14.893 71.6416 14.9385 71.7044 14.9385 71.8056C14.9385 71.9068 14.893 71.9698 14.7937 72.068L13.4358 73.2282C13.2419 73.4199 13.0732 73.4891 12.7684 73.4891L0 73.5699V77.0001H14.3671C14.8801 77.0001 15.1331 76.9172 15.4622 76.5918L19.5675 72.396C19.7221 72.2431 19.8233 72.0044 19.8233 71.8056C19.8233 71.6067 19.7221 71.3683 19.5675 71.2154L15.4622 67.0194C15.1331 66.694 14.8801 66.6113 14.3671 66.6113H0Z" fill="black"/>
<path d="M32.4131 66.6113C32.1871 66.6113 32.059 66.6561 31.9704 66.7437L21.8913 76.7503C21.7854 76.8554 21.8332 77.0001 21.9977 77.0001H26.8985L32.0963 71.6689C32.2042 71.5623 32.2852 71.5178 32.4131 71.5178C32.5409 71.5178 32.622 71.5623 32.7298 71.6689L37.9276 77.0001H42.8284C42.9929 77.0001 43.0407 76.8554 42.9348 76.7503L32.8557 66.7437C32.7671 66.6561 32.639 66.6113 32.4131 66.6113Z" fill="black"/>
<path fill-rule="evenodd" clip-rule="evenodd" d="M64.9107 66.6113V70.0415L52.1423 70.1223C51.8375 70.1223 51.6688 70.1915 51.4749 70.3832L50.117 71.5434C50.0177 71.6416 49.9722 71.7044 49.9722 71.8056C49.9722 71.9068 50.0177 71.9698 50.117 72.068L51.4749 73.2282C51.6688 73.4199 51.8375 73.4891 52.1423 73.4891L64.9107 73.5699V77.0001H50.5436C50.0306 77.0001 49.7776 76.9172 49.4485 76.5918L45.3432 72.396C45.1886 72.2431 45.0874 72.0044 45.0874 71.8056C45.0874 71.6067 45.1886 71.3683 45.3432 71.2154L49.4485 67.0194C49.7776 66.694 50.0306 66.6113 50.5436 66.6113H64.9107Z" fill="black"/>
<path d="M74.9244 66.6113H70.9082V77.0001H74.9244V66.6113Z" fill="black"/>
<path d="M89.4218 66.6113C89.1959 66.6113 89.0678 66.6561 88.9792 66.7437L78.9001 76.7503C78.7942 76.8554 78.842 77.0001 79.0065 77.0001H83.9073L89.1051 71.6689C89.2129 71.5623 89.294 71.5177 89.4218 71.5177C89.5497 71.5177 89.6307 71.5623 89.7386 71.6689L94.9364 77.0001H99.8372C100.002 77.0001 100.049 76.8554 99.9436 76.7503L89.8645 66.7437C89.7758 66.6561 89.6478 66.6113 89.4218 66.6113Z" fill="black"/>
</g>
</svg>
