<svg width="100" height="100" viewBox="0 0 100 100" fill="none" xmlns="http://www.w3.org/2000/svg">
<path d="M0 19L1.99273 80.5372H11.6782L11.4664 55.019H19.5882V47.0645H11.4664L11.4964 27.0409H22.1L22.0427 19H0ZM25.8718 19L27.0973 80.5372H37.0991L37.3018 19.0009L25.8718 19ZM72.76 19V26.7618H80.66L80.4327 80.5372H90.1091L92.1645 26.7536H100L99.94 19H72.76ZM52.3845 47.4809L52.4936 26.579H58.0791C60.6109 31.2336 62.2373 37.39 63.5127 47.4809H52.3845ZM43.4618 80.5354H52.7209L52.8245 55.0899H63.9182C64.79 59.5809 65.0036 73.4445 65.0555 80.5354H74.0373C74.8873 49.12 72.2545 31.3636 64.9809 19H42.6145L43.4618 80.5354Z" fill="black"/>
</svg>
