<svg width="100" height="100" viewBox="0 0 100 100" fill="none" xmlns="http://www.w3.org/2000/svg">
<g clip-path="url(#clip0_104_2275)">
<mask id="mask0_104_2275" style="mask-type:luminance" maskUnits="userSpaceOnUse" x="0" y="0" width="100" height="100">
<path d="M100 0H0V100H100V0Z" fill="white"/>
</mask>
<g mask="url(#mask0_104_2275)">
<path d="M100.214 42.4937C100.327 42.297 100.208 42.1494 99.9606 42.1494C98.6729 42.1494 96.9865 42.1549 95.6503 42.1549C95.3324 42.1549 95.1654 42.1932 95.0145 42.4937C94.5189 43.4555 88.4899 52.6197 87.3692 54.3958C87.1807 54.669 86.949 54.6307 86.922 54.3193C86.8089 53.2646 85.9091 52.046 84.4921 51.4667C83.4146 51.0241 82.3532 50.9421 81.2594 51.0896C79.2767 51.3574 77.5095 52.423 75.9578 53.6143C73.6195 55.4177 71.5991 57.7565 68.9914 59.4888C67.569 60.4287 65.6186 61.2484 64.3147 60.0244C63.1348 58.915 63.2695 56.4505 65.0744 54.5433C65.263 54.3411 65.4947 54.5105 65.457 54.6908C65.2845 55.5543 65.4947 56.4122 66.1412 57.0133C66.9278 57.7292 68.0539 57.8112 69.0183 57.3303C70.1551 56.7565 70.8232 55.6526 71.0226 54.4012C71.3243 52.4558 69.848 50.7399 68 50.6033C66.4968 50.494 65.0583 51.0241 63.6574 52.199C62.957 52.7891 62.5529 53.2263 61.9495 54.1061C61.804 54.3193 61.5723 54.3411 61.5831 54.0242C61.6532 51.5323 60.6402 50.1333 58.609 50.0841C57.0358 50.0459 55.3494 50.9148 54.0402 51.9749C52.6016 53.1444 51.3463 54.7018 49.9993 56.1608C49.8323 56.3412 49.6868 56.3302 49.6383 55.9805C49.5952 54.3302 49.1911 52.7345 48.4368 51.5979C48.1728 51.2044 47.6125 51.0077 47.1384 51.2754C46.9229 51.3957 46.1632 51.7509 45.6136 52.199C45.3388 52.4285 45.2365 52.7564 45.355 53.1826C46.0823 55.6472 45.9207 58.4505 44.9347 60.8167C44.0296 62.9862 42.2678 64.9426 40.1988 65.6038C38.8357 66.041 37.4187 65.8278 36.5405 64.6037C35.339 62.9152 35.8239 59.9697 37.6181 57.5325C39.2021 55.3849 41.4919 54.0187 43.7764 53.1389C44.0458 53.0351 44.0996 52.8602 44.0242 52.6252C43.9003 52.2427 43.7009 51.7235 43.6201 51.4886C43.41 50.9257 42.8227 50.8328 42.1061 50.9093C40.4467 51.106 38.9489 51.6798 37.4672 52.4831C33.5934 54.587 31.6538 58.6582 30.8025 60.8386C30.393 61.8878 30.0428 62.5381 29.5902 63.1174C28.9814 63.8933 28.2109 64.6037 26.8101 65.8552C26.6808 65.9699 26.5892 66.2104 26.697 66.4289C26.8424 66.7295 27.5698 67.7732 27.7745 67.8662C28.0008 67.9809 28.2702 67.8224 28.3726 67.7459C29.3532 67.0738 30.5277 66.0027 31.1042 65.2759C31.3036 65.03 31.5137 65.1338 31.6214 65.5109C32.1602 67.4508 33.5611 69.0356 35.5007 69.6968C39.0512 70.91 42.7365 69.1504 45.5166 66.0901C47.2838 64.1447 47.9196 62.8933 48.5985 62.0408C49.7461 60.5981 52.009 57.3685 54.7083 55.2974C55.6996 54.5324 56.8688 53.9531 57.456 54.3356C57.9302 54.6471 58.081 55.3685 57.3213 56.7674C54.5736 61.8605 50.5273 67.8443 49.7838 69.2979C49.6491 69.5493 49.7676 69.746 50.0262 69.746C51.4648 69.7405 52.8926 69.7405 54.1964 69.7405C54.4119 69.7296 54.5089 69.6312 54.6221 69.4728C56.7341 66.1229 58.7168 62.9316 60.845 59.6364C60.9635 59.4396 61.0713 59.5927 61.0767 59.6801C61.1198 60.4451 61.3083 61.4943 61.7555 62.1774C62.5583 63.4452 63.7005 63.9917 64.9667 64.0026C65.9742 64.0136 66.4806 63.8606 67.569 63.4507C68.4526 63.1174 69.1638 62.6802 69.7026 62.2867C70.0204 62.0627 70.0743 62.4397 70.0689 62.4944C69.5786 65.1557 70.1821 68.3033 72.7898 69.6148C75.9093 71.1723 79.336 68.9809 81.3079 67.0027C81.5019 66.8115 81.7066 66.8333 81.7282 67.2432C81.7713 67.9973 82.1053 68.8935 82.7249 69.5219C84.379 71.2051 87.7087 70.5384 91.0545 67.9099C93.2042 66.2267 95.451 63.8496 97.4822 61.3359C97.5576 61.2375 97.6115 61.0845 97.466 60.926C97.1589 60.5981 96.7117 60.2211 96.4046 59.9315C96.2645 59.8112 96.0598 59.844 95.9413 59.9369C93.8615 61.9425 91.9866 64.2322 89.2765 66.1284C88.366 66.7732 86.9059 67.2978 86.2539 66.4016C86.0007 66.0519 86.0277 65.571 86.2809 64.9371C87.0621 62.937 99.5673 43.6358 100.214 42.4937ZM83.6893 58.68C83.7163 58.8276 83.9049 58.9697 84.0934 59.0407C84.1581 59.0626 84.1958 59.1118 84.1204 59.2702C83.587 60.4233 83.1021 61.09 82.434 62.0955C81.8198 63.0245 81.1301 63.7458 80.295 64.4398C79.0343 65.5 77.2832 66.6475 75.8339 65.877C75.1927 65.5382 74.9126 64.6256 74.9234 63.8879C74.9557 61.8113 75.8662 59.6746 77.5472 57.5817C79.6 55.0187 81.8683 53.6908 83.3553 54.4176C84.8962 55.1608 84.4059 56.9696 83.7163 58.3904C83.6678 58.4997 83.6624 58.5926 83.6893 58.68Z" fill="black"/>
<path d="M9.5426 69.67C4.88213 69.7028 0.776609 66.7846 0.307869 61.7243C0.0438652 58.921 0.825099 56.4236 2.39296 54.3689C3.77763 52.5382 6.12672 51.0136 8.11482 50.642C8.76136 50.5218 9.6288 50.5983 9.98978 51.03C10.5555 51.6967 10.3885 52.4235 9.82815 52.7186C8.31417 53.5055 6.4877 54.8498 5.58793 56.6805C4.85519 58.1778 4.70972 59.9866 5.825 61.7025C7.69457 64.5714 12.9154 64.6479 17.7644 60.074C18.9659 58.9538 20.0381 57.8827 21.1318 56.6094C23.2708 54.1339 23.9766 53.2268 26.8213 49.2321C26.8537 49.1884 26.8644 49.1228 26.8483 49.0955C26.8267 49.0463 26.7836 49.0299 26.7028 49.0245C24.8063 49.0791 23.1522 49.6529 21.5467 50.8715C21.0833 51.2158 20.4206 51.1666 20.1243 50.7131C19.801 50.2048 20.0327 49.5382 20.5661 49.1666C23.1522 47.3414 25.9755 47.0135 28.8579 46.5217C28.8579 46.5217 29.0573 46.5326 29.2243 46.3085C30.4096 44.7675 31.304 43.3795 32.5648 41.822C33.8363 40.2428 35.4796 38.7892 36.7349 37.7017C38.486 36.1716 39.6066 35.6579 40.7489 35.0295C41.0506 34.871 40.7111 34.6797 40.6195 34.6797C34.2458 33.4666 27.6241 31.8928 21.2934 34.2699C16.9131 35.9311 14.9897 39.4558 15.9164 41.8111C16.5737 43.4833 18.7396 43.7511 20.7708 42.7456C22.4572 41.9095 24.0143 40.5597 25.1188 38.822C25.7384 37.8602 27.0422 38.5542 26.3364 40.2264C24.483 44.6418 20.9432 48.1447 16.633 48.2922C12.9639 48.4124 10.5986 45.6746 10.604 42.2975C10.6202 35.6361 17.9314 31.2534 25.6091 30.5922C34.86 29.8162 43.6206 32.3135 52.8068 33.4447C59.8433 34.3081 66.5942 34.33 73.6631 32.6797C74.4982 32.4939 75.0854 33.0349 75.0316 33.8928C74.9615 35.1333 74.0187 36.3246 71.6857 37.6143C69.0349 39.0897 66.2656 39.5324 63.3669 39.5597C56.3682 39.6198 49.8435 36.8492 43.098 35.3628C43.1087 35.6634 43.1842 36.0186 42.9363 36.2098C39.2026 39.0077 35.8244 41.8494 33.5615 45.8386C33.4861 45.9315 33.5292 46.0189 33.6585 46.008C35.625 45.9042 37.3922 45.8495 39.2241 45.702C39.542 45.6746 39.5582 45.5927 39.5258 45.3577C39.3642 43.9806 39.7575 42.4177 40.9536 41.3357C42.1712 40.2264 43.7014 40.1007 44.7143 40.8985C45.8673 41.8111 45.7649 43.4451 45.1345 44.6746C44.4934 45.9205 43.4374 46.5872 42.4191 46.9096C42.4191 46.9096 42.209 46.9588 42.2359 47.1556C42.279 47.4725 43.6637 48.2485 43.7822 48.4561C43.8953 48.6529 43.8361 48.9589 43.626 49.1939C43.4805 49.3633 43.2488 49.5218 42.9579 49.5163C42.7208 49.5108 42.5753 49.4289 42.2736 49.2595C41.654 48.9152 40.8782 48.3578 40.3555 47.6966C40.1777 47.4725 40.0915 47.467 39.6497 47.4944C37.667 47.6091 34.569 47.9151 32.4732 48.1775C31.9667 48.243 31.8913 48.3359 31.7835 48.5163C28.4377 54.1066 24.8709 60.1396 20.954 64.1725C16.7515 68.5005 13.2548 69.6426 9.5426 69.67ZM41.4062 44.8221C41.4601 45.1118 41.5678 45.1664 41.6971 45.1391C42.3329 45.008 43.0333 44.4779 43.4428 43.8658C43.8199 43.3084 43.9977 42.4997 43.6206 42.1773C43.2865 41.8876 42.7477 41.9696 42.3437 42.3303C41.5463 43.0461 41.2984 44.068 41.4062 44.8221Z" fill="black"/>
</g>
</g>
<defs>
<clipPath id="clip0_104_2275">
<rect width="100" height="100" fill="white"/>
</clipPath>
</defs>
</svg>
