<svg width="39" height="46" viewBox="0 0 39 46" fill="none" xmlns="http://www.w3.org/2000/svg">
<path d="M38.3603 39.4503L32.7245 25.5894C34.5524 22.9238 35.6186 19.8013 35.6186 16.3742C35.6186 7.38742 28.3073 0 19.2444 0C10.1815 0 2.87024 7.31126 2.87024 16.3742C2.87024 19.8013 3.93647 23 5.76428 25.5894L0.128518 39.4503C-0.0999585 39.9834 -0.0237998 40.5927 0.356995 41.1258C0.73779 41.6589 1.2709 41.8874 1.88017 41.8113L7.36362 41.4305L11.0192 45.4669C11.3239 45.8477 11.7808 46 12.3139 46C12.3901 46 12.5424 46 12.6186 46C13.2279 45.9238 13.6848 45.4669 13.9133 44.9338L18.8636 32.596C19.0159 32.596 19.1683 32.596 19.3206 32.596C19.4729 32.596 19.6252 32.596 19.7775 32.596L24.7279 44.9338C24.9563 45.4669 25.4133 45.8477 26.0226 46C26.0987 46 26.251 46 26.3272 46C26.7841 46 27.2411 45.7715 27.6219 45.4669L31.2775 41.4305L36.761 41.8113C37.3702 41.8874 37.9034 41.5828 38.2841 41.1258C38.5126 40.5927 38.5888 39.9834 38.3603 39.4503ZM19.2444 3.42715C26.4033 3.42715 32.1914 9.21523 32.1914 16.3742C32.1914 23.5331 26.4033 29.3212 19.2444 29.3212C12.0855 29.3212 6.29739 23.5331 6.29739 16.3742C6.29739 9.21523 12.0855 3.42715 19.2444 3.42715ZM11.7047 41.1258L9.34375 38.4603C8.96295 38.0795 8.506 37.851 7.97289 37.9272L4.39342 38.1556L8.35368 28.4073C10.3338 30.1589 12.6947 31.4536 15.3603 32.1391L11.7047 41.1258ZM30.5921 37.9272C30.059 37.851 29.5259 38.0795 29.2212 38.4603L26.8603 41.1258L23.2047 32.1391C25.8702 31.4536 28.2312 30.1589 30.2113 28.4073L34.1716 38.1556L30.5921 37.9272Z" fill="white"/>
<path d="M16.198 16.755L17.5689 15.6126V21.4007C17.5689 22.3146 18.3304 23.0762 19.2443 23.0762C20.1583 23.0762 20.9198 22.3146 20.9198 21.4007V12.0332C20.9198 11.3477 20.5391 10.7385 19.9298 10.51C19.3205 10.2054 18.6351 10.2815 18.102 10.7385L13.9132 14.0895C13.1516 14.6987 13.0755 15.765 13.6847 16.5265C14.3702 17.212 15.4364 17.3643 16.198 16.755Z" fill="white"/>
</svg>
