<svg width="100" height="100" viewBox="0 0 100 100" fill="none" xmlns="http://www.w3.org/2000/svg">
<g clip-path="url(#clip0_104_2253)">
<mask id="mask0_104_2253" style="mask-type:luminance" maskUnits="userSpaceOnUse" x="0" y="0" width="100" height="100">
<path d="M100 0H0V100H100V0Z" fill="white"/>
</mask>
<g mask="url(#mask0_104_2253)">
<mask id="mask1_104_2253" style="mask-type:luminance" maskUnits="userSpaceOnUse" x="0" y="0" width="100" height="100">
<path d="M100 0H0V100H100V0Z" fill="white"/>
</mask>
<g mask="url(#mask1_104_2253)">
<path d="M50 0C22.388 0 0 22.388 0 50C0 77.612 22.388 100 50 100C77.612 100 100 77.616 100 50C100 22.388 77.616 0 50 0ZM50 99C22.94 99 1 77.06 1 50C1 22.94 22.94 1 50 1C77.06 1 99 22.94 99 50C99 77.06 77.06 99 50 99Z" fill="black"/>
<path d="M13.6282 34.7517L14.8682 31.7637L16.8802 32.6037L14.6002 38.0797L5.46826 34.2837L6.50826 31.7917L13.6282 34.7517Z" fill="black"/>
<path d="M16.6878 19.8037L17.9078 20.9157L19.9038 18.7317L21.5118 20.1997L19.5158 22.3877L22.3798 25.0037L20.5598 26.9957L13.2598 20.3277L17.2798 15.9277L18.8878 17.3917L16.6878 19.8037Z" fill="black"/>
<path d="M79.0201 12.4238L80.9561 14.2438L78.8641 19.5357L84.1121 17.2197L86.0681 19.0597L80.8161 27.8637L78.8841 25.9797L81.8161 20.8197L81.7961 20.8037L76.0801 23.2357L75.2961 22.4997L77.4641 16.7237L77.4441 16.7037L72.5561 19.9837L70.5801 18.1637L79.0201 12.4238Z" fill="black"/>
<path d="M91.656 32.6639L90.128 33.2959L91.296 36.1079L89.284 36.9399L88.116 34.1319L86.544 34.7839L87.772 37.7479L85.764 38.5799L83.5 33.1239L92.632 29.3359L94.896 34.7919L92.884 35.6239L91.656 32.6639Z" fill="black"/>
<path d="M12.7558 47.0363L12.7918 44.1562L2.85973 47.9483L2.82373 50.8963L12.6638 55.0083L12.6998 52.1443L10.9878 51.4083L11.0318 47.6923L12.7558 47.0363ZM9.02373 50.6403L5.89173 49.4883V49.4603L9.05173 48.3963L9.02373 50.6403Z" fill="black"/>
<path d="M29.5119 7.50781L26.8999 8.87581L27.9519 19.4879L30.4879 18.1599L30.3239 16.3079L33.6159 14.5799L35.0119 15.7919L37.5599 14.4559L29.5119 7.50781ZM30.0719 14.2159L29.5999 10.9119L29.6239 10.8999L32.0599 13.1759L30.0719 14.2159Z" fill="black"/>
<path d="M48.3559 8.6642C49.8039 8.3002 50.5079 7.0602 50.3999 5.7002C50.2359 3.5962 48.6079 2.7882 46.5639 2.9522L42.5439 3.2722L43.3279 13.1242L46.0199 12.9122L45.7199 9.1242H45.7479L48.5879 12.7122L51.9359 12.4442L48.3559 8.6642ZM45.8439 7.4562L45.5839 7.4762L45.3879 5.0162L45.6479 5.0002C46.5239 4.9282 47.5279 5.0082 47.6119 6.0802C47.6959 7.1522 46.7199 7.3882 45.8439 7.4562Z" fill="black"/>
<path d="M64.688 4.78405C61.844 3.86805 58.576 5.02005 57.66 7.86805C56.68 10.9161 58.28 13.8001 61.452 14.8201C64.624 15.8401 67.612 14.4321 68.592 11.3841C69.508 8.54005 67.532 5.70005 64.688 4.78405ZM65.916 10.5401C65.908 10.5681 65.9 10.5961 65.888 10.6201C65.38 12.1401 63.732 12.9561 62.216 12.4481C62.188 12.4401 62.16 12.4321 62.136 12.4201C60.62 11.9041 59.812 10.2561 60.328 8.74005C60.748 7.44005 62.388 6.66005 63.924 7.15605C65.456 7.64805 66.332 9.24005 65.916 10.5401Z" fill="black"/>
<path d="M97.6363 48.432C97.5323 45.444 95.3403 42.768 92.3563 42.868C89.1563 42.98 86.9883 45.468 87.1003 48.796C87.2163 52.128 89.5563 54.4599 92.7523 54.3479C95.7403 54.2399 97.7403 51.4159 97.6363 48.432ZM92.6403 51.5359C92.6123 51.5359 92.5803 51.54 92.5523 51.54C90.9523 51.576 89.6283 50.3079 89.5923 48.7079C89.5923 48.6799 89.5883 48.652 89.5883 48.624C89.5603 47.024 90.8363 45.7039 92.4403 45.6759C93.8043 45.6279 95.0963 46.9039 95.1483 48.5159C95.2043 50.1279 94.0043 51.4879 92.6403 51.5359Z" fill="black"/>
<path d="M50 13.9805C30.108 13.9805 13.98 30.1085 13.98 50.0005C13.98 69.8925 30.108 86.0205 50 86.0205C69.892 86.0205 86.02 69.8965 86.02 50.0005C86.02 30.1045 69.892 13.9805 50 13.9805ZM39.02 16.6645C42.428 15.5405 45.992 14.9525 49.58 14.9125V43.7925H39.012L39.02 16.6645ZM28.364 22.3765L28.38 43.7965L15.452 43.7925C16.988 35.1245 21.708 27.5965 28.364 22.3765ZM15.188 54.4325H28.376L28.38 77.6405C21.096 71.9485 16.352 63.6085 15.188 54.4325ZM49.58 85.0885C45.988 85.0485 42.42 84.4565 39.008 83.3285L39.012 54.4325H49.58V85.0885ZM50.42 85.0885H50.352C50.376 85.0885 50.4 85.0885 50.42 85.0885V14.9165C69.572 15.1085 85.088 30.7445 85.088 50.0045C85.088 69.2405 69.616 84.8605 50.42 85.0885Z" fill="black"/>
<path d="M60.2803 29.7079H73.0403V28.3799H60.2803V29.7079ZM60.2803 27.2719H73.0403V26.2559H60.2803V27.2719ZM69.2723 25.6799C69.8603 25.6799 70.3403 25.2039 70.3403 24.6119C70.3403 24.0239 69.8643 23.5439 69.2723 23.5439C68.6843 23.5439 68.2043 24.0199 68.2043 24.6119C68.2083 25.1999 68.6843 25.6799 69.2723 25.6799ZM64.6203 77.6199C63.1643 77.6199 61.9843 76.5319 61.9843 75.0759C61.9843 73.6239 63.1603 72.3559 64.6203 72.3559H69.7563C70.3123 72.3559 70.7603 71.9079 70.7603 71.3519C70.7643 70.7959 70.3163 70.3399 69.7563 70.3319H61.5163C58.8523 70.3319 56.6923 68.1719 56.6923 65.5039C56.6923 62.8399 58.8523 60.7879 61.5163 60.7879L71.6163 60.7799C72.2403 60.7799 72.7443 60.4519 72.7443 59.8319C72.7483 59.2039 72.2443 58.6879 71.6163 58.6799H61.4283C57.4123 58.7679 54.0883 55.5879 54.0003 51.5719C53.9123 47.5559 57.0923 44.2319 61.1083 44.1439C61.2163 44.1399 61.3243 44.1399 61.4323 44.1439L71.2243 44.1519C71.9843 44.1519 72.6003 43.4919 72.6003 42.7279C72.6003 41.9639 71.9843 41.3919 71.2243 41.3919L60.1923 41.3959C60.7243 39.0919 62.2323 38.7359 63.5603 38.7399H68.7003C69.2883 38.7399 69.7643 38.2639 69.7683 37.6759V37.6719C69.7683 37.0839 69.2923 36.6959 68.7003 36.6959H63.5603C61.3483 36.6959 60.2843 34.7479 60.1923 33.6839H65.5083C65.9523 32.2639 66.8363 31.5559 67.8123 31.5559H73.4803C75.4283 31.5559 76.2243 30.3159 76.4043 29.7839C77.7323 30.4039 82.5163 34.2159 82.5163 40.5959C82.5163 46.9759 76.8483 50.2519 73.3003 50.2799H61.4283C60.8043 50.2799 60.3003 50.7839 60.3003 51.4079C60.3003 52.0319 60.8043 52.5359 61.4283 52.5359L72.5923 52.5279C76.1203 52.5279 78.9843 55.5039 78.9843 59.0319C78.9843 62.5599 76.1243 65.3359 72.5923 65.3359L61.9563 65.3239C61.3683 65.3239 60.8923 65.7999 60.8923 66.3879C60.8923 66.9759 61.3683 67.4519 61.9563 67.4519L70.0203 67.4599C71.9243 67.4599 73.4643 69.0039 73.4643 70.9079C73.4643 72.8159 71.9203 74.3319 70.0203 74.3319L65.1443 74.3479C64.6963 74.3479 64.3323 74.7159 64.3323 75.1639C64.3323 75.6119 64.6963 75.9759 65.1443 75.9759H68.8883C70.1963 75.9799 71.6563 77.9079 68.8443 78.9719C68.8683 78.4199 68.7763 77.6199 67.6043 77.6199C66.4363 77.624 64.6203 77.6199 64.6203 77.6199Z" fill="black"/>
<path d="M61.1003 37.7281C59.0163 38.7041 58.5083 41.6241 58.6163 42.6441L55.6963 44.6601C55.3083 45.0801 54.6563 45.1081 54.2363 44.7201C53.8163 44.3321 53.7883 43.6801 54.1763 43.2601C54.1963 43.2401 54.2163 43.2201 54.2363 43.2001L56.1203 41.8921C57.0483 41.2721 56.8723 40.2521 56.7403 39.4121C56.6083 38.5721 55.7243 38.9681 55.4563 39.2801C55.0603 39.6761 54.5123 39.9241 53.9083 39.9241C52.6963 39.9241 51.7163 38.9841 51.7163 37.7721C51.7163 36.5601 52.7003 35.5801 53.9123 35.5801C54.4923 35.5801 55.0523 35.8121 55.4603 36.2201C55.7283 36.5321 56.6163 36.9321 56.7443 36.0881C56.8763 35.2481 57.0523 34.2281 56.1243 33.6081L54.2403 32.3001C53.8363 31.8961 53.8363 31.2401 54.2403 30.8401C54.6443 30.4361 55.3003 30.4361 55.7003 30.8401L58.6203 32.8561C58.4403 33.6961 59.0163 36.7561 61.1003 37.7281Z" fill="black"/>
</g>
</g>
</g>
<defs>
<clipPath id="clip0_104_2253">
<rect width="100" height="100" fill="white"/>
</clipPath>
</defs>
</svg>
