<svg width="26" height="26" viewBox="0 0 26 26" fill="none" xmlns="http://www.w3.org/2000/svg">
<g clip-path="url(#clip0_109_3459)">
<path d="M15.4395 23.2151C12.9242 22.5412 9.83569 19.7832 7.37613 15.7959C4.05273 10.3124 3.43987 5.02267 5.99307 3.44358C6.1112 3.37538 6.26037 3.3155 6.40122 3.28668L9.29928 2.53221C10.0512 2.3343 10.8087 2.73696 11.077 3.47451L12.2102 6.57389C12.3444 6.94267 12.3377 7.34027 12.1447 7.68794C11.9911 8.01289 11.6905 8.26517 11.3217 8.39934L10.0435 8.82234C10.5574 10.2581 12.0172 13.8776 15.0452 16.9855C15.0679 17.0249 15.1073 17.0021 15.1073 17.0021L16.1665 16.1543C16.7594 15.6808 17.6394 15.7502 18.1834 16.3286L20.4501 18.7998C20.994 19.3783 20.9557 20.2666 20.3773 20.8106L18.246 22.8023C18.1196 22.9015 17.9931 23.0008 17.875 23.069C17.1829 23.416 16.34 23.4564 15.4395 23.2151ZM9.68899 3.93465C9.65794 3.92633 9.68899 3.93465 9.68899 3.93465L6.75989 4.6808C5.23872 5.6378 5.60821 10.0968 8.64441 15.0374C11.7261 20.0568 15.6059 22.5941 17.2884 21.7802L19.4197 19.7885L17.153 17.3173C17.1219 17.309 17.0909 17.3006 17.0909 17.3006L16.0316 18.1484C15.4388 18.6219 14.5588 18.5526 14.0375 18.0135C10.7799 14.6444 9.22315 10.7659 8.69481 9.25975C8.56065 8.89097 8.59839 8.50169 8.75202 8.17675C8.91398 7.82075 9.21456 7.56847 9.57501 7.46535L10.8532 7.04236L9.74278 3.98235C9.71173 3.97403 9.68899 3.93465 9.68899 3.93465Z" fill="#111928"/>
</g>
<defs>
<clipPath id="clip0_109_3459">
<rect width="20.5751" height="20.5751" fill="white" transform="translate(5.41492 0.260254) rotate(15)"/>
</clipPath>
</defs>
</svg>
