<svg width="34" height="34" viewBox="0 0 34 34" fill="none" xmlns="http://www.w3.org/2000/svg">
<g clip-path="url(#clip0_78_1639)">
<path d="M17 8.23438C14.0781 8.23438 11.6875 10.5719 11.6875 13.3875C11.6875 16.2031 14.0781 18.5938 17 18.5938C19.9219 18.5938 22.3125 16.2562 22.3125 13.4406C22.3125 10.625 19.9219 8.23438 17 8.23438ZM17 16.2031C15.4062 16.2031 14.0781 14.9812 14.0781 13.4406C14.0781 11.9 15.4062 10.625 17 10.625C18.5938 10.625 19.9219 11.8469 19.9219 13.3875C19.9219 14.9281 18.5938 16.2031 17 16.2031Z" fill="#0BB489"/>
<path d="M17 0.956249C8.12817 0.956249 0.956299 8.12812 0.956299 17C0.956299 25.8719 8.12817 33.0969 17 33.0969C25.8719 33.0969 33.0969 25.8719 33.0969 17C33.0969 8.12812 25.8719 0.956249 17 0.956249ZM10.5188 29.0062V24.65C10.5188 22.95 11.9 21.5687 13.6 21.5687H20.5063C22.2063 21.5687 23.5875 22.95 23.5875 24.65V29.0062C21.6751 30.0687 19.4438 30.6531 17.0532 30.6531C14.6625 30.7062 12.4313 30.0687 10.5188 29.0062ZM25.925 27.3594V24.65C25.925 21.6219 23.4813 19.1781 20.4532 19.1781H13.5469C10.5188 19.1781 8.07505 21.6219 8.07505 24.65V27.3594C5.15317 24.8625 3.2938 21.1437 3.2938 17C3.34692 9.45625 9.4563 3.34687 17 3.34687C24.5438 3.34687 30.7063 9.50937 30.7063 17.0531C30.7063 21.1437 28.8469 24.8625 25.925 27.3594Z" fill="#0BB489"/>
</g>
<defs>
<clipPath id="clip0_78_1639">
<rect width="34" height="34" fill="white"/>
</clipPath>
</defs>
</svg>
