<svg width="24" height="24" viewBox="0 0 24 24" fill="none" xmlns="http://www.w3.org/2000/svg">
<path d="M11.3625 21.3377C11.0625 21.3377 10.7625 21.2252 10.5 21.0377L1.53751 13.8377C0.975012 13.3877 0.637512 12.7127 0.637512 12.0002C0.637512 11.2877 0.975012 10.6127 1.53751 10.1627L10.5 2.96272C10.9125 2.62522 11.475 2.58772 11.925 2.81272C12.4125 3.03772 12.675 3.52522 12.675 4.05022V7.87522C15.7125 8.36272 18.4875 9.71272 20.5875 11.7752C22.05 13.2752 22.7625 14.6627 23.175 16.7627C23.25 17.2127 23.325 18.0377 23.325 19.1252C23.325 19.6127 23.0625 20.1002 22.6125 20.3252C22.1625 20.5502 21.6375 20.5502 21.225 20.2877C18.075 18.2627 15.15 17.0252 12.675 16.6502V20.0252C12.675 20.5502 12.375 21.0002 11.925 21.2627C11.7375 21.3002 11.55 21.3377 11.3625 21.3377ZM11.025 4.72522L2.62501 11.4752C2.36251 11.6252 2.32501 11.8877 2.32501 12.0002C2.32501 12.1127 2.36251 12.3377 2.58751 12.5252L10.9875 19.2752V15.6752C10.9875 15.4502 11.1 15.2252 11.25 15.0752C11.4375 14.9252 11.6625 14.8127 11.8875 14.8502C15.375 15.0752 19.0125 16.8752 21.6375 18.5252C21.6 17.6627 21.5625 17.2502 21.525 17.1002C21.1875 15.3377 20.625 14.2502 19.3875 12.9752C17.4 11.0252 14.7 9.75022 11.7375 9.45022C11.325 9.41272 10.9875 9.03772 10.9875 8.62522V4.72522H11.025Z" fill="#111928"/>
</svg>
