<svg width="31" height="29" viewBox="0 0 31 29" fill="none" xmlns="http://www.w3.org/2000/svg">
<path d="M30.3881 26.9061L21.9859 19.8917C25.4486 15.0235 25.0922 8.06137 20.7637 3.66426C18.4722 1.30866 15.4169 0 12.1578 0C8.89875 0 5.84338 1.30866 3.55186 3.66426C-1.18395 8.53249 -1.18395 16.4892 3.55186 21.3574C5.84338 23.713 8.89875 25.0217 12.1578 25.0217C15.2641 25.0217 18.1667 23.8177 20.4582 21.6715L28.9623 28.7383C29.166 28.8953 29.4206 29 29.6752 29C30.0317 29 30.3372 28.843 30.5409 28.5812C30.9483 28.0578 30.8974 27.3249 30.3881 26.9061ZM12.1578 22.6661C9.50982 22.6661 7.06553 21.6191 5.18139 19.6823C1.31126 15.704 1.31126 9.26534 5.18139 5.33935C7.06553 3.40253 9.50982 2.3556 12.1578 2.3556C14.8058 2.3556 17.2501 3.40253 19.1342 5.33935C23.0043 9.31769 23.0043 15.7563 19.1342 19.6823C17.301 21.6191 14.8058 22.6661 12.1578 22.6661Z" fill="#0BB489"/>
</svg>
