<svg width="22" height="20" viewBox="0 0 22 20" fill="none" xmlns="http://www.w3.org/2000/svg">
<path d="M20.9573 18.556L15.1627 13.7184C17.5508 10.361 17.305 5.55957 14.3198 2.52708C12.7395 0.902527 10.6323 0 8.38469 0C6.13707 0 4.02992 0.902527 2.44956 2.52708C-0.81652 5.88448 -0.81652 11.3718 2.44956 14.7292C4.02992 16.3538 6.13707 17.2563 8.38469 17.2563C10.527 17.2563 12.5287 16.426 14.1091 14.9458L19.974 19.8195C20.1145 19.9278 20.2901 20 20.4657 20C20.7115 20 20.9222 19.8917 21.0627 19.7112C21.3436 19.3502 21.3085 18.8448 20.9573 18.556ZM8.38469 15.6318C6.5585 15.6318 4.87278 14.9097 3.57337 13.574C0.904317 10.8303 0.904317 6.38989 3.57337 3.68231C4.87278 2.34657 6.5585 1.62455 8.38469 1.62455C10.2109 1.62455 11.8966 2.34657 13.196 3.68231C15.8651 6.42599 15.8651 10.8664 13.196 13.574C11.9317 14.9097 10.2109 15.6318 8.38469 15.6318Z" fill="#0BB489"/>
</svg>
