<svg width="25" height="23" viewBox="0 0 25 23" fill="none" xmlns="http://www.w3.org/2000/svg">
<path d="M23.9824 21.2091L17.4216 15.732C20.1255 11.9307 19.8471 6.49451 16.4673 3.06112C14.6781 1.2218 12.2923 0.199951 9.74757 0.199951C7.2028 0.199951 4.81708 1.2218 3.02779 3.06112C-0.670072 6.86238 -0.670072 13.0752 3.02779 16.8764C4.81708 18.7158 7.2028 19.7376 9.74757 19.7376C12.1731 19.7376 14.4395 18.7975 16.2288 17.1217L22.869 22.6397C23.0281 22.7623 23.2269 22.844 23.4257 22.844C23.704 22.844 23.9426 22.7214 24.1017 22.517C24.4197 22.1083 24.38 21.5361 23.9824 21.2091ZM9.74757 17.8983C7.67995 17.8983 5.77137 17.0808 4.30018 15.5685C1.27827 12.4621 1.27827 7.43461 4.30018 4.36908C5.77137 2.85675 7.67995 2.03927 9.74757 2.03927C11.8152 2.03927 13.7238 2.85675 15.195 4.36908C18.2169 7.47548 18.2169 12.503 15.195 15.5685C13.7635 17.0808 11.8152 17.8983 9.74757 17.8983Z" fill="black"/>
</svg>
