<svg width="34" height="42" viewBox="0 0 34 42" fill="none" xmlns="http://www.w3.org/2000/svg">
<path d="M32.6976 3.15323C31.875 2.60484 30.8468 2.53629 29.9556 2.87903C28.7218 3.35887 27.4194 3.63306 26.0484 3.63306C23.375 3.63306 20.9073 2.60484 18.9879 0.822581C17.8226 -0.274194 16.1089 -0.274194 14.9435 0.822581C13.0242 2.67339 10.4879 3.63306 7.88307 3.63306C6.5121 3.63306 5.20968 3.35887 3.97581 2.87903C3.08468 2.53629 2.05645 2.60484 1.23387 3.15323C0.479839 3.70161 0 4.59274 0 5.55242V21.25C0 30.4355 10.8306 38.1815 15.4919 41.0605C15.9718 41.3347 16.5202 41.4718 17 41.4718C17.5484 41.4718 18.0282 41.3347 18.5081 41.0605C23.1694 38.1815 34 30.4355 34 21.25V5.55242C34 4.59274 33.5202 3.70161 32.6976 3.15323ZM30.9153 21.25C30.9153 29.0645 20.4274 36.2621 17 38.3871C13.5726 36.2621 3.08468 29.0645 3.08468 21.25V5.82661C4.59274 6.44355 6.2379 6.71774 7.88307 6.71774C11.3105 6.71774 14.5323 5.48387 17 3.15323C19.4677 5.48387 22.6895 6.71774 26.1169 6.71774C27.7621 6.71774 29.4073 6.44355 30.9153 5.82661V21.25Z" fill="white"/>
<path d="M22.4154 14.6694L14.3952 21.1129L12.6815 18.7137C12.2017 18.0282 11.242 17.8911 10.5565 18.371C9.87102 18.8508 9.73392 19.8105 10.2138 20.496L12.8871 24.2661C13.1613 24.6089 13.5041 24.8145 13.9154 24.8831C13.9839 24.8831 14.0525 24.8831 14.121 24.8831C14.4638 24.8831 14.8065 24.746 15.0807 24.5403L24.3347 17.0686C25.0202 16.5202 25.0888 15.5605 24.5404 14.875C24.0605 14.1895 23.1009 14.121 22.4154 14.6694Z" fill="white"/>
</svg>
